<?xml version="1.0" encoding="UTF-8" standalone="no"?>
<!-- Generator: Adobe Illustrator 27.8.1, SVG Export Plug-In . SVG Version: 6.00 Build 0)  -->

<svg
   version="1.1"
   id="Capa_1"
   x="0px"
   y="0px"
   viewBox="0 0 202.58121 77.999999"
   xml:space="preserve"
   sodipodi:docname="logo_moodle_centros_23_24.svg"
   width="202.58121"
   height="78"
   inkscape:version="1.2.2 (732a01da63, 2022-12-09)"
   xmlns:inkscape="http://www.inkscape.org/namespaces/inkscape"
   xmlns:sodipodi="http://sodipodi.sourceforge.net/DTD/sodipodi-0.dtd"
   xmlns="http://www.w3.org/2000/svg"
   xmlns:svg="http://www.w3.org/2000/svg"><defs
   id="defs105" /><sodipodi:namedview
   id="namedview103"
   pagecolor="#ffffff"
   bordercolor="#000000"
   borderopacity="0.25"
   inkscape:showpageshadow="2"
   inkscape:pageopacity="0.0"
   inkscape:pagecheckerboard="0"
   inkscape:deskcolor="#d1d1d1"
   showgrid="false"
   inkscape:zoom="4.8361312"
   inkscape:cx="90.77504"
   inkscape:cy="40.528264"
   inkscape:window-width="1536"
   inkscape:window-height="801"
   inkscape:window-x="1912"
   inkscape:window-y="-8"
   inkscape:window-maximized="1"
   inkscape:current-layer="Capa_1" />
<style
   type="text/css"
   id="style2">
	.st0{opacity:0.5;}
	.st1{fill:#79727C;}
	.st2{fill:#B7D9E6;}
	.st3{fill:#92C6CF;}
	.st4{fill:#29783F;}
	.st5{fill:#388A44;}
	.st6{fill:#DFEAF0;}
	.st7{fill:#274464;}
	.st8{fill:#99BAD2;}
	.st9{fill:#EBC22F;}
	.st10{fill:#E2A333;}
	.st11{fill:#27588E;}
	.st12{fill:#264464;}
	.st13{fill:#FFFFFF;}
</style>
<g
   class="st0"
   id="g28"
   transform="translate(-15.818799,-10.1)">
	<circle
   class="st1"
   cx="55"
   cy="61.799999"
   r="26.299999"
   id="circle4" />
	<g
   id="g26">
		<g
   id="g24">
			<path
   class="st2"
   d="m 81.3,61.8 c 0,3.8 -0.8,7.5 -2.3,10.8 -0.8,1.8 -1.8,3.4 -2.9,4.9 -2.5,3.4 -5.9,6.2 -9.8,8 -1.7,0.8 -3.6,1.5 -5.5,1.9 C 58.9,87.8 57,88 55,88 c -2,0 -3.9,-0.2 -5.8,-0.6 -0.5,-0.1 -1,-0.2 -1.4,-0.4 -11,-3.1 -19,-13.3 -19,-25.3 0,-8.1 3.7,-15.4 9.5,-20.2 1,-0.9 2.1,-1.6 3.3,-2.3 3.9,-2.4 8.6,-3.7 13.5,-3.7 4.3,0 8.4,1 12,2.9 1.8,0.9 3.4,2 4.9,3.3 5.7,4.9 9.3,12.1 9.3,20.1 z"
   id="path6" />
			<path
   class="st3"
   d="m 60.5,87.4 v 0 C 58.8,87.8 56.9,88 55,88 c -2,0 -3.9,-0.2 -5.8,-0.6 -0.5,-0.1 -1,-0.2 -1.4,-0.4 -11,-3.1 -19,-13.3 -19,-25.3 0,-8.1 3.7,-15.4 9.5,-20.2 1,-0.9 2.1,-1.6 3.3,-2.3 3.9,-2.4 8.6,-3.7 13.5,-3.7 1.9,0 3.8,0.2 5.6,0.6 -2.8,0.6 -5.5,1.7 -7.9,3.1 -1.2,0.7 -2.3,1.5 -3.3,2.3 -5.8,4.8 -9.5,12.1 -9.5,20.2 0,12 8,22.1 19,25.3 0.6,0.2 1,0.3 1.5,0.4 z"
   id="path8" />
			<path
   class="st4"
   d="m 28.8,61.8 c 0,12 8,22.1 19,25.3 2.5,-3.3 -9.3,-5.7 -9.3,-11.6 0,-6.1 -1.1,-8.4 -1.6,-11.1 -0.5,-2.7 -3.6,-2 -0.2,-5.4 1,-1 2.3,-1.4 3.7,-1.6 C 41.1,53 43,49 45.6,45.7 43.6,43.8 41,42.3 38.3,41.6 32.5,46.5 28.8,53.7 28.8,61.8 Z"
   id="path10" />
			<path
   class="st5"
   d="m 81.3,61.8 c 0,3.8 -0.8,7.5 -2.3,10.8 C 73.3,88.1 62.5,69.8 60.7,66.1 58.6,62 78,58.6 75.5,54.9 73,51.2 67.8,60.2 64.6,57 63.3,55.7 56,69.6 56.9,52.2 c 0.4,-1 3,-2.5 5.6,-4 2.7,-1.5 0.2,-10.3 1,-11.2 1,-1 7.4,5.4 8.5,4.8 2.6,2.2 4.8,4.9 6.4,8 1.4,2.7 2.3,5.6 2.7,8.7 0.1,1.1 0.2,2.2 0.2,3.3 z"
   id="path12" />
			<path
   class="st4"
   d="m 76.1,77.5 c -2.5,3.4 -5.9,6.2 -9.8,8 1,-6.2 6.2,-6.9 9.8,-8 z"
   id="path14" />
			<path
   class="st6"
   d="m 55,35.6 c -4.9,0 -9.6,1.4 -13.5,3.7 1.1,1.1 4.3,1.9 8.3,2.1 1,-0.8 2,-1.5 3,-2.1 2.4,-1.4 5.1,-2.5 7.9,-3.1 C 58.9,35.8 57,35.6 55,35.6 Z"
   id="path16" />
			<path
   class="st2"
   d="m 81.1,58.5 c -1,-2.4 -1.6,-1.2 -3.3,-2.8 -1.7,-1.7 0.6,-4.5 0.6,-5.9 1.3,2.6 2.3,5.5 2.7,8.7 z"
   id="path18" />
			<ellipse
   transform="matrix(0.3099,-0.9508,0.9508,0.3099,-0.4211,88.1237)"
   class="st5"
   cx="60.5"
   cy="44.400002"
   rx="2.7"
   ry="1.3"
   id="ellipse20" />
			<ellipse
   transform="matrix(0.2934,-0.956,0.956,0.2934,-29.611,119.5973)"
   class="st5"
   cx="66.099998"
   cy="79.800003"
   rx="1.7"
   ry="0.80000001"
   id="ellipse22" />
		</g>
	</g>
</g>
<g
   id="g52"
   transform="translate(-15.818799,-10.1)">
	<path
   class="st7"
   d="m 56.9,15.8 6.2,18.3 c 0.9,2.6 0,5.4 -2.2,7.1 -7,5.3 -15.6,8.3 -24.5,8.3 -2.7,0 -5.1,-1.7 -6,-4.3 L 24.2,26.9 Z"
   id="path30" />
	<g
   id="g36">
		<path
   class="st8"
   d="m 54.5,45.2 c 2.3,-1.1 4.4,-2.5 6.5,-4.1 2.2,-1.7 3,-4.5 2.2,-7.1 L 57,15.7 45.8,19.5 Z"
   id="path32" />
		<path
   class="st8"
   d="m 16.5,34.2 c 0.3,0.9 1.1,1.6 2.2,1.7 L 45,37.4 c 0.7,0 1.3,-0.2 1.8,-0.6 L 66.7,19.6 c 0.9,-0.7 1,-1.8 0.7,-2.7 l -0.5,-1.5 -0.4,0.2 C 66.1,15.4 65.7,15.2 65.2,15.2 L 38.9,13.7 c -0.7,0 -1.3,0.2 -1.8,0.6 L 17.2,31.5 c -0.4,0.3 -0.6,0.7 -0.7,1.1 L 16,32.8 Z"
   id="path34" />
	</g>
	<path
   class="st7"
   d="m 16.7,30 c -1.7,1.5 -0.8,4.3 1.5,4.4 l 26.3,1.5 c 0.7,0 1.3,-0.2 1.8,-0.6 L 66.2,18.1 C 67.9,16.6 67,13.8 64.7,13.7 L 40,12.3 c -0.7,0 -2.9,0 -4.3,1.4 z"
   id="path38" />
	<ellipse
   transform="matrix(0.9467,-0.322,0.322,0.9467,-5.5498,14.6467)"
   class="st9"
   cx="41.5"
   cy="24.1"
   rx="3.7"
   ry="2.0999999"
   id="ellipse40" />
	<path
   class="st9"
   d="m 28.1,34.8 12.7,-11.4 1.3,1.4 -12.3,10.6 v 9.9 H 28 Z"
   id="path42" />
	<path
   class="st9"
   d="m 29.3,56 c 2.2,0 3.9,0.1 3.9,-2.1 0,-2.2 -1.8,-5.8 -4,-5.8 -2.2,0 -3.9,3.7 -3.9,5.8 0.1,2.3 1.8,2.2 4,2.1 z"
   id="path44" />
	<path
   class="st10"
   d="m 30.7,54 c 0,-2.2 -0.7,-5.8 -1.4,-5.8 2.2,0 3.9,3.6 4,5.8 0,2.1 -1.6,2 -3.6,2.1 0.5,-0.1 1,-0.3 1,-2.1 z"
   id="path46" />
	<circle
   class="st9"
   cx="29.200001"
   cy="45.799999"
   r="3"
   id="circle48" />
	<path
   class="st10"
   d="m 28.2,48.6 c 1.1,-0.4 1.9,-1.5 1.9,-2.8 0,-1.3 -0.8,-2.4 -2,-2.8 0.3,-0.1 0.6,-0.2 1,-0.2 1.6,0 3,1.3 3,2.9 0,1.6 -1.3,3 -2.9,3 -0.3,0.1 -0.6,0 -1,-0.1 z"
   id="path50" />
</g>
<path
   class="st7"
   d="m 77.781201,15.6 c 0,-2.2 0,-4 -0.2,-5.7 h 3.3 l 0.2,3.4 h 0.1 c 1.1,-2 3.2,-3.9 6.7,-3.9 2.9,0 5.1,1.8 6,4.2 h 0.1 c 0.6,-1.1 1.5,-2.1 2.4,-2.7 1.2,-1 2.6,-1.5 4.699999,-1.5 2.8,0 7,1.8 7,9.2 v 12.5 h -3.9 V 19 c 0,-4.1 -1.5,-6.5 -4.599999,-6.5 -2.2,0 -3.9,1.6 -4.6,3.5 -0.2,0.5 -0.3,1.2 -0.3,1.9 V 31 h -3.8 V 18.4 c 0,-3.3 -1.5,-5.8 -4.4,-5.8 -2.4,0 -4.1,1.9 -4.8,3.9 -0.2,0.5 -0.3,1.2 -0.3,1.8 v 12.8 h -3.8 c 0.2,0 0.2,-15.5 0.2,-15.5 z"
   id="path54" />
<path
   class="st7"
   d="m 131.0812,20.3 c 0,7.8 -5.5,11.3 -10.6,11.3 -5.7,0 -10.1,-4.2 -10.1,-10.9 0,-7.1 4.7,-11.3 10.5,-11.3 6,0 10.2,4.4 10.2,10.9 z m -16.8,0.2 c 0,4.7 2.6,8.1 6.4,8.1 3.7,0 6.4,-3.4 6.4,-8.2 0,-3.6 -1.8,-8.1 -6.3,-8.1 -4.6,0 -6.5,4.2 -6.5,8.2 z"
   id="path56" />
<path
   class="st7"
   d="m 152.6812,20.3 c 0,7.8 -5.5,11.3 -10.6,11.3 -5.7,0 -10.1,-4.2 -10.1,-10.9 0,-7.1 4.7,-11.3 10.5,-11.3 6,0 10.2,4.4 10.2,10.9 z m -16.9,0.2 c 0,4.7 2.6,8.1 6.4,8.1 3.7,0 6.4,-3.4 6.4,-8.2 0,-3.6 -1.8,-8.1 -6.3,-8.1 -4.4,0 -6.5,4.2 -6.5,8.2 z"
   id="path58" />
<path
   class="st7"
   d="m 173.4812,0 v 25.6 c 0,1.8 0,4.1 0.2,5.5 h -3.5 l -0.2,-3.7 h -0.1 c -1.1,2.4 -3.8,4.1 -7.2,4.1 -5.1,0 -9.1,-4.3 -9.1,-10.7 0,-7 4.3,-11.4 9.5,-11.4 3.3,0 5.5,1.5 6.4,3.3 h 0.1 V 0 Z m -3.9,18.5 c 0,-0.4 0,-1.1 -0.2,-1.6 -0.5,-2.5 -2.6,-4.5 -5.5,-4.5 -4,0 -6.3,3.5 -6.3,8.2 0,4.3 2.1,7.8 6.3,7.8 2.6,0 4.9,-1.7 5.6,-4.6 0.1,-0.5 0.2,-1.1 0.2,-1.7 v -3.6 z"
   id="path60" />
<path
   class="st7"
   d="m 177.3812,0 h 3.9 v 31.1 h -3.9 z"
   id="path62" />
<path
   class="st7"
   d="m 187.4812,21.1 c 0.1,5.2 3.4,7.3 7.3,7.3 2.7,0 4.4,-0.4 5.9,-1.1 l 0.6,2.7 c -1.3,0.6 -3.7,1.3 -7,1.3 -6.5,0 -10.4,-4.3 -10.4,-10.7 0,-6.4 3.8,-11.5 10,-11.5 7,0 8.7,6.1 8.7,10 0,0.8 -0.1,1.4 -0.1,1.8 z m 11.2,-2.7 c 0,-2.5 -1,-6.3 -5.4,-6.3 -3.9,0 -5.6,3.6 -5.9,6.3 z"
   id="path64" />
<path
   class="st11"
   d="m 83.081201,36.4 c -1.7,0 -3,0.6 -3.9,1.8 -1,1.2 -1.4,3 -1.4,5.1 0,2.2 0.4,4 1.4,5.2 1,1.2 2.2,1.8 4,1.8 1.1,0 2.2,-0.2 3.6,-0.6 v 1.8 c -1.1,0.4 -2.3,0.7 -3.9,0.7 -2.2,0 -4,-0.8 -5.1,-2.3 -1.2,-1.5 -1.8,-3.7 -1.8,-6.5 0,-1.8 0.3,-3.3 0.9,-4.6 0.6,-1.3 1.4,-2.4 2.5,-3.1 1.1,-0.7 2.4,-1.1 3.9,-1.1 1.6,0 3,0.4 4.1,1 l -0.7,1.7 c -1.3,-0.6 -2.5,-0.9 -3.6,-0.9 z"
   id="path66" />
<path
   class="st11"
   d="m 103.9812,51.9 h -8.399999 v -17 h 8.399999 v 1.8 h -6.599999 v 5.5 h 6.299999 v 1.7 h -6.299999 v 6.3 h 6.599999 z"
   id="path68" />
<path
   class="st11"
   d="m 124.8812,51.9 h -2 l -8.2,-14.4 h -0.1 c 0.1,1.7 0.2,3.3 0.2,4.6 v 9.7 h -1.6 V 34.9 h 1.9 l 8.2,14.3 h 0.1 c 0,-0.2 -0.1,-0.9 -0.1,-2 -0.1,-1.1 -0.1,-1.9 -0.1,-2.5 v -9.8 h 1.7 z"
   id="path70" />
<path
   class="st11"
   d="m 139.4812,51.9 h -1.8 V 36.7 h -4.8 v -1.8 h 11.3 v 1.8 h -4.8 z"
   id="path72" />
<path
   class="st11"
   d="m 153.9812,44.8 v 7.1 h -1.8 v -17 h 4.1 c 1.8,0 3.2,0.4 4.1,1.2 0.9,0.8 1.3,2 1.3,3.6 0,2.3 -1,3.8 -3,4.6 l 4.1,7.7 h -2 l -3.6,-7.1 z m 0,-1.6 h 2.4 c 1.2,0 2.1,-0.3 2.7,-0.8 0.6,-0.5 0.9,-1.4 0.9,-2.5 0,-1.1 -0.3,-1.9 -0.9,-2.5 -0.6,-0.5 -1.5,-0.7 -2.8,-0.7 h -2.3 z"
   id="path74" />
<path
   class="st11"
   d="m 184.0812,43.3 c 0,2.7 -0.6,4.8 -1.8,6.4 -1.2,1.6 -2.9,2.4 -5.1,2.4 -2.2,0 -4,-0.8 -5.1,-2.3 -1.2,-1.5 -1.8,-3.7 -1.8,-6.5 0,-2.8 0.6,-4.9 1.8,-6.4 1.2,-1.5 2.9,-2.3 5.1,-2.3 2.2,0 3.9,0.8 5,2.4 1.3,1.5 1.9,3.6 1.9,6.3 z m -12,0 c 0,2.3 0.4,4.1 1.3,5.3 0.9,1.2 2.1,1.8 3.8,1.8 1.7,0 2.9,-0.6 3.8,-1.8 0.9,-1.2 1.2,-2.9 1.2,-5.3 0,-2.3 -0.4,-4.1 -1.2,-5.2 -0.9,-1.1 -2.1,-1.8 -3.8,-1.8 -1.7,0 -2.9,0.6 -3.8,1.8 -0.8,1.3 -1.3,3 -1.3,5.2 z"
   id="path76" />
<path
   class="st11"
   d="m 201.6812,47.4 c 0,1.5 -0.4,2.6 -1.4,3.5 -1,0.9 -2.3,1.2 -3.9,1.2 -1.8,0 -3.2,-0.3 -4.1,-0.8 v -1.9 c 0.6,0.3 1.3,0.5 2,0.7 0.7,0.2 1.4,0.3 2.2,0.3 1.1,0 2,-0.3 2.6,-0.8 0.6,-0.5 0.9,-1.2 0.9,-2.1 0,-0.6 -0.1,-1.1 -0.4,-1.4 -0.2,-0.4 -0.5,-0.7 -1.1,-1.1 -0.5,-0.4 -1.2,-0.7 -2.2,-1.1 -1.4,-0.5 -2.4,-1.2 -3,-2 -0.6,-0.8 -0.9,-1.8 -0.9,-3.1 0,-1.3 0.4,-2.4 1.3,-3.2 0.9,-0.8 2,-1.1 3.4,-1.1 1.5,0 2.9,0.4 4.1,1 l -0.5,1.8 c -1.2,-0.6 -2.5,-0.9 -3.6,-0.9 -1,0 -1.7,0.3 -2.2,0.7 -0.5,0.4 -0.8,1.1 -0.8,1.8 0,0.6 0.1,1.1 0.3,1.5 0.2,0.4 0.5,0.7 1,1.1 0.4,0.4 1.1,0.7 2.1,1.1 1.6,0.6 2.6,1.3 3.3,2 0.7,0.7 0.9,1.7 0.9,2.8 z"
   id="path78" />
<rect
   x="75.5812"
   y="57.700005"
   class="st12"
   width="125.7"
   height="20"
   id="rect80" />
<path
   class="st13"
   d="m 100.2812,73.5 c -0.499999,0.3 -1.599999,0.5 -2.999999,0.5 -3.2,0 -5.7,-2.1 -5.7,-5.8 0,-3.6 2.4,-6.1 6,-6.1 1.4,0 2.3,0.3 2.699999,0.5 l -0.399999,1.2 c -0.6,-0.3 -1.4,-0.5 -2.3,-0.5 -2.7,0 -4.5,1.7 -4.5,4.8 0,2.8 1.6,4.6 4.4,4.6 0.9,0 1.8,-0.2 2.4,-0.5 z"
   id="path82" />
<path
   class="st13"
   d="m 103.5812,62.4 v 6.8 c 0,2.6 1.1,3.7 2.7,3.7 1.7,0 2.8,-1.1 2.8,-3.7 v -6.8 h 1.5 v 6.7 c 0,3.5 -1.9,5 -4.4,5 -2.4,0 -4.1,-1.4 -4.1,-4.9 v -6.8 z"
   id="path84" />
<path
   class="st13"
   d="m 113.1812,62.5 c 0.8,-0.2 1.8,-0.2 2.9,-0.2 1.6,0 2.6,0.3 3.3,0.9 0.6,0.5 0.9,1.3 0.9,2.2 0,1.5 -1,2.5 -2.2,2.9 v 0.1 c 0.9,0.3 1.4,1.1 1.7,2.3 0.4,1.6 0.7,2.7 0.9,3.2 h -1.5 c -0.2,-0.3 -0.4,-1.3 -0.8,-2.8 -0.3,-1.6 -1,-2.2 -2.3,-2.2 h -1.4 v 5 h -1.5 z m 1.5,5.3 h 1.5 c 1.6,0 2.6,-0.9 2.6,-2.2 0,-1.5 -1.1,-2.1 -2.7,-2.2 -0.7,0 -1.2,0.1 -1.5,0.1 v 4.3 z"
   id="path86" />
<path
   class="st13"
   d="m 122.1812,72.1 c 0.7,0.4 1.6,0.8 2.7,0.8 1.5,0 2.4,-0.8 2.4,-2 0,-1.1 -0.6,-1.7 -2.2,-2.3 -1.9,-0.7 -3,-1.6 -3,-3.3 0,-1.8 1.5,-3.1 3.7,-3.1 1.2,0 2,0.3 2.5,0.6 l -0.4,1.2 c -0.4,-0.2 -1.1,-0.5 -2.2,-0.5 -1.6,0 -2.2,0.9 -2.2,1.7 0,1.1 0.7,1.6 2.3,2.2 2,0.8 2.9,1.7 2.9,3.4 0,1.8 -1.3,3.3 -4,3.3 -1.1,0 -2.3,-0.3 -2.9,-0.7 z"
   id="path88" />
<path
   class="st13"
   d="m 140.6812,68 c 0,4 -2.4,6.1 -5.4,6.1 -3,0 -5.2,-2.4 -5.2,-5.9 0,-3.7 2.3,-6.1 5.4,-6.1 3.2,0.1 5.2,2.5 5.2,5.9 z m -8.9,0.2 c 0,2.5 1.3,4.7 3.7,4.7 2.4,0 3.7,-2.2 3.7,-4.8 0,-2.3 -1.2,-4.7 -3.7,-4.7 -2.5,0 -3.7,2.3 -3.7,4.8 z"
   id="path90" />
<path
   class="st13"
   d="M 145.7812,73.9 V 73 l 1.2,-1.1 c 2.8,-2.7 4.1,-4.1 4.1,-5.8 0,-1.1 -0.5,-2.2 -2.2,-2.2 -1,0 -1.8,0.5 -2.4,0.9 l -0.5,-1.1 c 0.8,-0.6 1.9,-1.1 3.1,-1.1 2.4,0 3.4,1.6 3.4,3.2 0,2.1 -1.5,3.7 -3.8,6 l -0.9,0.8 v 0 h 5 v 1.3 z"
   id="path92" />
<path
   class="st13"
   d="m 154.8812,72.2 c 0.4,0.3 1.4,0.7 2.5,0.7 1.9,0 2.5,-1.2 2.5,-2.2 0,-1.6 -1.4,-2.2 -2.9,-2.2 h -0.8 v -1.1 h 0.8 c 1.1,0 2.5,-0.6 2.5,-1.9 0,-0.9 -0.6,-1.7 -2,-1.7 -0.9,0 -1.7,0.4 -2.2,0.7 l -0.4,-1.1 c 0.6,-0.4 1.7,-0.9 2.9,-0.9 2.2,0 3.2,1.3 3.2,2.7 0,1.1 -0.7,2.1 -2.1,2.6 v 0 c 1.4,0.3 2.5,1.3 2.5,2.9 0,1.8 -1.4,3.3 -4.1,3.3 -1.2,0 -2.3,-0.4 -2.9,-0.8 z"
   id="path94" />
<path
   class="st13"
   d="m 162.4812,74.6 4.8,-12.4 h 1.2 l -4.8,12.4 z"
   id="path96" />
<path
   class="st13"
   d="M 169.1812,73.9 V 73 l 1.2,-1.1 c 2.8,-2.7 4.1,-4.1 4.1,-5.8 0,-1.1 -0.5,-2.2 -2.2,-2.2 -1,0 -1.8,0.5 -2.4,0.9 l -0.5,-1.1 c 0.8,-0.6 1.9,-1.1 3.1,-1.1 2.4,0 3.4,1.6 3.4,3.2 0,2.1 -1.5,3.7 -3.8,6 l -0.9,0.8 v 0 h 5 v 1.3 z"
   id="path98" />
<path
   class="st13"
   d="m 182.5812,73.9 v -3 h -5.2 v -1 l 5,-7.1 h 1.6 v 6.9 h 1.6 v 1.2 h -1.6 v 3 z m 0,-4.2 V 66 c 0,-0.6 0,-1.2 0.1,-1.7 h -0.1 c -0.3,0.6 -0.6,1.1 -0.9,1.6 l -2.7,3.8 v 0 z"
   id="path100" />
</svg>
