<?xml version="1.0" encoding="utf-8"?>
<!-- Generator: Adobe Illustrator 26.3.1, SVG Export Plug-In . SVG Version: 6.00 Build 0)  -->
<svg version="1.1" id="Capa_1" xmlns="http://www.w3.org/2000/svg" xmlns:xlink="http://www.w3.org/1999/xlink" x="0px" y="0px"
	 viewBox="0 0 1211.7 911.5" style="enable-background:new 0 0 1211.7 911.5;" xml:space="preserve">
<style type="text/css">
	.st0{fill:#1F4A69;}
	.st1{fill-rule:evenodd;clip-rule:evenodd;fill:#10619C;}
	.st2{fill-rule:evenodd;clip-rule:evenodd;fill:#005591;}
</style>
<g>
	<g>
		<path class="st0" d="M14.2,675.6l12.8-9.5c3.7,6.9,8.6,9.8,14,9.8c8.3,0,12.6-4.4,12.6-17.4v-62.3h18.8V660
			c0,17.7-8.9,32.2-29.1,32.2C29.6,692.1,20.5,686.5,14.2,675.6z"/>
		<path class="st0" d="M92.8,663.6v-44.5h18.7v42.1c0,10.9,3.1,14.9,9.9,14.9c5.8,0,9.7-2.5,14.5-8.9v-48h18.7v71.2h-15.3l-1.4-10.2
			h-0.5c-6.1,7.2-13,11.9-22.6,11.9C99.4,692.1,92.8,681.4,92.8,663.6z"/>
		<path class="st0" d="M174.5,619.1h15.3l1.4,9.4h0.4c6.2-6.1,13.5-11.2,23.1-11.2c15.4,0,22,10.7,22,28.6v44.4H218v-42.1
			c0-11.1-3-14.9-10-14.9c-5.8,0-9.5,2.8-14.7,8v48.9h-18.7L174.5,619.1L174.5,619.1z"/>
		<path class="st0" d="M258.6,665.4v-31.5h-10V620l11.1-0.9l2.2-19.2h15.5v19.2h17.5v14.7h-17.5v31.5c0,8.1,3.3,11.9,9.7,11.9
			c2.3,0,5.1-0.8,7-1.5l3.1,13.6c-3.8,1.3-8.8,2.7-15,2.7C265.1,692.1,258.6,681.3,258.6,665.4z"/>
		<path class="st0" d="M302.9,671c0-15.3,12.3-23.3,41.1-26.3c-0.4-7-3.4-12.3-12.2-12.3c-6.6,0-13,2.9-19.6,6.7l-6.7-12.3
			c8.4-5.2,18.6-9.4,29.7-9.4c18,0,27.3,10.8,27.3,31.4v41.6h-15.3l-1.3-7.6h-0.5c-6.2,5.3-13.3,9.4-21.5,9.4
			C311.2,692.1,302.9,683.1,302.9,671z M343.9,670.5v-14.4c-17.4,2.2-23.3,7-23.3,13.3c0,5.6,3.9,8,9.4,8
			C335.4,677.5,339.3,674.9,343.9,670.5z"/>
		<path class="st0" d="M406.3,654.7c0-23.1,14.5-37.4,29.9-37.4c8,0,13,3.1,18,7.8l-0.6-11.2v-25h18.5v101.4H457l-1.4-7.4h-0.5
			c-5.2,5.1-12.3,9.2-19.7,9.2C417.7,692.1,406.3,678.1,406.3,654.7z M453.6,669.3V638c-4.3-3.9-8.9-5.3-13.3-5.3
			c-8,0-14.7,7.6-14.7,21.9c0,14.7,5.3,22.1,14.7,22.1C445.2,676.7,449.4,674.7,453.6,669.3z"/>
		<path class="st0" d="M487.8,654.7c0-23,16.3-37.4,33.2-37.4c19.6,0,29.7,14.4,29.7,33.9c0,3.6-0.4,7-0.9,8.6H506
			c1.5,11.7,9.2,17.8,19.7,17.8c5.8,0,10.9-1.8,16-5l6.4,11.4c-7,4.8-16,7.9-24.8,7.9C503.3,692.1,487.8,678.2,487.8,654.7z
			 M534.7,647.5c0-9.5-4.3-15.6-13.5-15.6c-7.5,0-14.1,5.3-15.5,15.6H534.7z"/>
		<path class="st0" d="M614.5,596.1h22.1l30.2,94.2h-19.7l-6.6-24.1H610l-6.6,24.1h-19.1L614.5,596.1z M614.1,651.6h22.4l-2.8-10.3
			c-2.9-9.8-5.5-20.6-8.1-30.8H625c-2.4,10.3-5.2,21-8,30.8L614.1,651.6z"/>
		<path class="st0" d="M676.4,619.1h15.3l1.4,9.4h0.4c6.2-6.1,13.5-11.2,23.1-11.2c15.4,0,22,10.7,22,28.6v44.4h-18.7v-42.1
			c0-11.1-3-14.9-10-14.9c-5.8,0-9.5,2.8-14.7,8v48.9h-18.7L676.4,619.1L676.4,619.1z"/>
		<path class="st0" d="M753.8,654.7c0-23.1,14.5-37.4,29.9-37.4c8,0,13,3.1,18,7.8l-0.6-11.2v-25h18.6v101.4h-15.1l-1.4-7.4h-0.5
			c-5.2,5.1-12.3,9.2-19.7,9.2C765.2,692.1,753.8,678.1,753.8,654.7z M801.1,669.3V638c-4.3-3.9-8.9-5.3-13.3-5.3
			c-8,0-14.7,7.6-14.7,21.9c0,14.7,5.3,22.1,14.7,22.1C792.7,676.7,796.9,674.7,801.1,669.3z"/>
		<path class="st0" d="M836.1,671c0-15.3,12.3-23.3,41.1-26.3c-0.4-7-3.4-12.3-12.2-12.3c-6.6,0-13,2.9-19.6,6.7l-6.7-12.3
			c8.4-5.2,18.6-9.4,29.7-9.4c18,0,27.3,10.8,27.3,31.4v41.6h-15.3l-1.3-7.6h-0.5c-6.2,5.3-13.3,9.4-21.5,9.4
			C844.5,692.1,836.1,683.1,836.1,671z M877.2,670.5v-14.4c-17.4,2.2-23.3,7-23.3,13.3c0,5.6,3.9,8,9.4,8
			C868.7,677.5,872.6,674.9,877.2,670.5z"/>
		<path class="st0" d="M914.8,670.4v-81.5h18.7v82.2c0,4.3,1.9,5.7,3.7,5.7c0.8,0,1.3,0,2.5-0.3l2.3,13.9c-2.2,0.9-5.2,1.7-9.7,1.7
			C919.4,692.1,914.8,683.6,914.8,670.4z"/>
		<path class="st0" d="M954.1,663.6v-44.5h18.7v42.1c0,10.9,3,14.9,9.9,14.9c5.8,0,9.7-2.5,14.5-8.9v-48h18.7v71.2h-15.3l-1.4-10.2
			h-0.5c-6.1,7.2-13,11.9-22.6,11.9C960.7,692.1,954.1,681.4,954.1,663.6z"/>
		<path class="st0" d="M1031.3,654.7c0-23.6,17-37.4,36.3-37.4c8.8,0,15.5,3.4,20.7,7.9l-8.9,12.1c-3.6-3-6.9-4.7-10.8-4.7
			c-10.9,0-18.3,8.8-18.3,22.1c0,13.5,7.5,22.1,17.7,22.1c5.1,0,9.9-2.4,13.9-5.7l7.5,12.3c-6.9,6-15.5,8.6-23.4,8.6
			C1046.3,692.1,1031.3,678.4,1031.3,654.7z"/>
		<path class="st0" d="M1102.8,619.1h18.7v71.2h-18.7V619.1z M1103.4,598.7l21.6-25.8l12.8,12.5l-25.2,22.4L1103.4,598.7z"/>
		<path class="st0" d="M1137.8,671c0-15.3,12.3-23.3,41.1-26.3c-0.4-7-3.4-12.3-12.2-12.3c-6.6,0-13,2.9-19.6,6.7l-6.7-12.3
			c8.4-5.2,18.6-9.4,29.7-9.4c18,0,27.3,10.8,27.3,31.4v41.6h-15.3l-1.3-7.6h-0.5c-6.2,5.3-13.3,9.4-21.5,9.4
			C1146.2,692.1,1137.8,683.1,1137.8,671z M1178.9,670.5v-14.4c-17.4,2.2-23.3,7-23.3,13.3c0,5.6,3.9,8,9.4,8
			C1170.4,677.5,1174.3,674.9,1178.9,670.5z"/>
	</g>
	<g>
		<polygon class="st1" points="677.5,15.1 576.4,15.1 338.5,521.1 439.6,521.1 		"/>
		<path class="st1" d="M777.5,521.1h101.7c-54.8-82.3-148.4-136.5-254.7-136.5c-16.4,0-32.4,1.3-48.1,3.8v79.1
			c15.6-3.4,31.8-5.2,48.4-5.2C683.6,462.2,737.2,484.5,777.5,521.1z"/>
		<path class="st2" d="M878.4,519.8h0.2L677.5,15.1l-54.8,116.6l107.7,271.7C791.1,425.9,842.8,467,878.4,519.8z"/>
	</g>
	<g>
		<path class="st0" d="M13.7,762.8c0-17.5,10.2-28.1,23.9-28.1c6.6,0,11.7,3.2,14.8,6.7l-3.7,4.4c-2.8-3-6.4-5.2-11-5.2c-10.2,0-17,8.4-17,21.9
			c0,13.6,6.5,22.2,16.8,22.2c5.2,0,9.1-2.3,12.5-6l3.8,4.3c-4.3,4.9-9.6,7.7-16.6,7.7C23.8,790.7,13.7,780.3,13.7,762.8z"/>
		<path class="st0" d="M60.2,769.8c0-13.3,8.8-21.1,18.6-21.1s18.6,7.7,18.6,21.1c0,13.3-8.8,20.9-18.6,20.9S60.2,783,60.2,769.8z M90.4,769.8
			c0-9.2-4.7-15.5-11.6-15.5c-6.9,0-11.6,6.3-11.6,15.5s4.6,15.3,11.6,15.3C85.7,785.1,90.4,779,90.4,769.8z"/>
		<path class="st0" d="M107.8,749.7h5.5l0.6,5.7h0.2c3.8-3.8,8-6.8,13.4-6.8c8.4,0,12.2,5.4,12.2,15.7v25.3h-6.6v-24.4c0-7.5-2.3-10.7-7.6-10.7
			c-4.1,0-6.9,2.1-11,6.1v29h-6.7V749.7z"/>
		<path class="st0" d="M148.3,785.1l3.3-4.4c3.5,2.8,7.1,4.7,11.9,4.7c5.3,0,7.9-2.8,7.9-6.3c0-4.1-4.7-5.9-9.1-7.6c-5.6-2.1-11.7-4.8-11.7-11.6
			c0-6.3,5.2-11.3,13.8-11.3c4.9,0,9.3,2.1,12.4,4.5l-3.2,4.3c-2.7-2.1-5.5-3.5-9.1-3.5c-5.1,0-7.4,2.7-7.4,5.7
			c0,3.8,4.1,5.2,8.6,6.9c5.8,2.2,12.2,4.6,12.2,12.2c0,6.5-5.2,11.9-14.6,11.9C157.6,790.7,152.2,788.3,148.3,785.1z"/>
		<path class="st0" d="M184.3,769.8c0-13,8.8-21.1,18-21.1c10.2,0,15.9,7.4,15.9,18.8c0,1.5-0.1,2.9-0.3,3.8h-27c0.4,8.5,5.7,14,13.3,14
			c3.9,0,7.1-1.2,10-3.2l2.4,4.4c-3.5,2.3-7.8,4.1-13.3,4.1C192.8,790.7,184.3,782.9,184.3,769.8z M212.3,766.4
			c0-8-3.7-12.4-9.9-12.4c-5.7,0-10.7,4.6-11.5,12.4H212.3z"/>
		<path class="st0" d="M218.1,806.6l1.3-5.2c1,0.4,2.4,0.7,3.8,0.7c4,0,4.9-3,4.9-7.9v-44.6h6.7v44.6c0,8.2-3,13.3-10.9,13.3
			C221.5,807.6,219.5,807.1,218.1,806.6z M227,737c0-2.6,1.8-4.3,4.5-4.3c2.6,0,4.4,1.8,4.4,4.3c0,2.7-1.8,4.5-4.4,4.5
			C228.8,741.5,227,739.7,227,737z"/>
		<path class="st0" d="M245.4,769.8c0-13,8.8-21.1,18-21.1c10.2,0,15.9,7.4,15.9,18.8c0,1.5-0.1,2.9-0.3,3.8h-27c0.4,8.5,5.7,14,13.3,14
			c3.9,0,7.1-1.2,10-3.2l2.4,4.4c-3.5,2.3-7.8,4.1-13.3,4.1C253.9,790.7,245.4,782.9,245.4,769.8z M273.4,766.4
			c0-8-3.7-12.4-9.9-12.4c-5.7,0-10.7,4.6-11.5,12.4H273.4z"/>
		<path class="st0" d="M289.2,749.7h5.5l0.6,7.3h0.2c2.8-5.1,6.8-8.3,11.3-8.3c1.8,0,3,0.2,4.3,0.9l-1.3,5.9c-1.3-0.5-2.3-0.7-3.9-0.7
			c-3.3,0-7.4,2.4-10.1,9.2v25.7h-6.7v-40H289.2z"/>
		<path class="st0" d="M316.5,739.2l11.6-13.7l4.7,4.5l-12.9,12.5L316.5,739.2z M317.8,749.7h6.7v40h-6.7V749.7z"/>
		<path class="st0" d="M335.5,779.3c0-8.7,7.6-13,24.6-14.9c0-5.2-1.7-10.1-8.2-10.1c-4.6,0-8.8,2.1-12,4.3l-2.7-4.6c3.7-2.4,9.4-5.2,15.8-5.2
			c9.7,0,13.8,6.6,13.8,16.4v24.6h-5.5l-0.6-4.8h-0.2c-3.8,3.2-8.3,5.7-13.3,5.7C340.5,790.7,335.5,786.5,335.5,779.3z M360.1,780
			v-11.2c-13.5,1.6-18,4.9-18,10.1c0,4.6,3.1,6.4,7.1,6.4C353,785.3,356.2,783.5,360.1,780z"/>
		<path class="st0" d="M393.2,769.8c0-13,8.2-21.1,17.3-21.1c4.7,0,7.7,1.8,11.3,4.7l-0.3-6.9v-15.4h6.6v58.6h-5.4l-0.6-4.7h-0.2
			c-3.2,3.1-7.4,5.7-12.2,5.7C399.6,790.7,393.2,783.1,393.2,769.8z M421.4,779.6v-21c-3.5-3-6.5-4.2-9.8-4.2
			c-6.5,0-11.6,6.2-11.6,15.3c0,9.6,4,15.4,11,15.4C414.8,785.1,418.1,783.2,421.4,779.6z"/>
		<path class="st0" d="M438.7,769.8c0-13,8.8-21.1,18-21.1c10.2,0,15.9,7.4,15.9,18.8c0,1.5-0.1,2.9-0.3,3.8h-27c0.4,8.5,5.7,14,13.3,14
			c3.9,0,7.1-1.2,10-3.2l2.4,4.4c-3.5,2.3-7.8,4.1-13.3,4.1C447.2,790.7,438.7,782.9,438.7,769.8z M466.7,766.4
			c0-8-3.7-12.4-9.9-12.4c-5.7,0-10.7,4.6-11.5,12.4H466.7z"/>
		<path class="st0" d="M499.6,735.7h13.5c16.6,0,25.5,9.7,25.5,26.9c0,17.1-8.9,27.2-25.2,27.2h-13.8V735.7z M512.5,784.1c12.7,0,19-8,19-21.6
			c0-13.7-6.3-21.3-19-21.3h-6.1v42.9H512.5z"/>
		<path class="st0" d="M546.5,769.8c0-13,8.8-21.1,18-21.1c10.2,0,15.9,7.4,15.9,18.8c0,1.5-0.1,2.9-0.3,3.8h-27c0.4,8.5,5.7,14,13.3,14
			c3.9,0,7.1-1.2,10-3.2l2.4,4.4c-3.5,2.3-7.8,4.1-13.3,4.1C555.1,790.7,546.5,782.9,546.5,769.8z M574.6,766.4
			c0-8-3.7-12.4-9.9-12.4c-5.7,0-10.7,4.6-11.5,12.4H574.6z"/>
		<path class="st0" d="M585.9,785.1l3.3-4.4c3.5,2.8,7.1,4.7,11.9,4.7c5.3,0,7.9-2.8,7.9-6.3c0-4.1-4.7-5.9-9.1-7.6c-5.6-2.1-11.7-4.8-11.7-11.6
			c0-6.3,5.2-11.3,13.8-11.3c4.9,0,9.3,2.1,12.4,4.5l-3.2,4.3c-2.7-2.1-5.5-3.5-9.1-3.5c-5.1,0-7.4,2.7-7.4,5.7
			c0,3.8,4.1,5.2,8.6,6.9c5.8,2.2,12.2,4.6,12.2,12.2c0,6.5-5.2,11.9-14.6,11.9C595.1,790.7,589.7,788.3,585.9,785.1z"/>
		<path class="st0" d="M622.3,779.3c0-8.7,7.6-13,24.6-14.9c0-5.2-1.7-10.1-8.2-10.1c-4.6,0-8.8,2.1-12,4.3L624,754c3.7-2.4,9.4-5.2,15.8-5.2
			c9.7,0,13.8,6.6,13.8,16.4v24.6h-5.5l-0.6-4.8h-0.2c-3.8,3.2-8.3,5.7-13.3,5.7C627.3,790.7,622.3,786.5,622.3,779.3z M646.9,780
			v-11.2c-13.5,1.6-18,4.9-18,10.1c0,4.6,3.1,6.4,7.1,6.4C639.8,785.3,643,783.5,646.9,780z"/>
		<path class="st0" d="M666.3,749.7h5.5l0.6,7.3h0.2c2.8-5.1,6.8-8.3,11.3-8.3c1.8,0,3,0.2,4.3,0.9l-1.3,5.9c-1.3-0.5-2.3-0.7-3.9-0.7
			c-3.3,0-7.4,2.4-10.1,9.2v25.7h-6.7v-40H666.3z"/>
		<path class="st0" d="M694.9,749.7h5.5l0.6,7.3h0.2c2.8-5.1,6.8-8.3,11.3-8.3c1.8,0,3,0.2,4.3,0.9l-1.3,5.9c-1.3-0.5-2.3-0.7-3.9-0.7
			c-3.3,0-7.4,2.4-10.1,9.2v25.7h-6.7v-40H694.9z"/>
		<path class="st0" d="M719.7,769.8c0-13.3,8.8-21.1,18.6-21.1s18.6,7.7,18.6,21.1c0,13.3-8.8,20.9-18.6,20.9S719.7,783,719.7,769.8z
			 M749.9,769.8c0-9.2-4.7-15.5-11.6-15.5s-11.6,6.3-11.6,15.5s4.6,15.3,11.6,15.3S749.9,779,749.9,769.8z"/>
		<path class="st0" d="M767.3,781.8v-50.7h6.7v51.1c0,2.1,0.9,2.9,1.9,2.9c0.4,0,0.7,0,1.4-0.1l1,5.2c-1,0.4-2.1,0.6-3.9,0.6
			C769.4,790.7,767.3,787.4,767.3,781.8z"/>
		<path class="st0" d="M788.3,781.8v-50.7h6.7v51.1c0,2.1,0.9,2.9,1.9,2.9c0.4,0,0.7,0,1.4-0.1l1,5.2c-1,0.4-2.1,0.6-3.9,0.6
			C790.3,790.7,788.3,787.4,788.3,781.8z"/>
		<path class="st0" d="M806.3,769.8c0-13.3,8.8-21.1,18.6-21.1s18.6,7.7,18.6,21.1c0,13.3-8.8,20.9-18.6,20.9S806.3,783,806.3,769.8z
			 M836.4,769.8c0-9.2-4.7-15.5-11.6-15.5c-6.9,0-11.6,6.3-11.6,15.5s4.6,15.3,11.6,15.3C831.7,785.1,836.4,779,836.4,769.8z"/>
		<path class="st0" d="M871,735.7h31.1v5.8h-24.3v16.9h20.5v5.8h-20.5v19.7h25.1v5.8h-32v-54H871z"/>
		<path class="st0" d="M910,769.8c0-13,8.2-21.1,17.3-21.1c4.7,0,7.7,1.8,11.3,4.7l-0.3-6.9v-15.4h6.6v58.6h-5.4l-0.6-4.7h-0.2
			c-3.2,3.1-7.4,5.7-12.2,5.7C916.5,790.7,910,783.1,910,769.8z M938.3,779.6v-21c-3.5-3-6.5-4.2-9.8-4.2c-6.5,0-11.6,6.2-11.6,15.3
			c0,9.6,4,15.4,11,15.4C931.7,785.1,934.9,783.2,938.3,779.6z"/>
		<path class="st0" d="M958,775.1v-25.3h6.7v24.5c0,7.4,2.2,10.6,7.5,10.6c4.1,0,7-2,10.8-6.8v-28.4h6.7v40h-5.6l-0.5-6.3h-0.2
			c-3.8,4.3-7.7,7.2-13.3,7.2C961.8,790.7,958,785.2,958,775.1z"/>
		<path class="st0" d="M1000.2,769.8c0-13.3,9.1-21.1,19.3-21.1c5.2,0,8.8,2.2,11.7,4.7l-3.5,4.4c-2.4-2.1-4.8-3.5-8-3.5
			c-7.3,0-12.6,6.3-12.6,15.5s5,15.3,12.4,15.3c3.7,0,6.9-1.7,9.4-4l2.9,4.5c-3.6,3.2-8.2,5.1-13,5.1
			C1008.4,790.7,1000.2,783,1000.2,769.8z"/>
		<path class="st0" d="M1037.4,779.3c0-8.7,7.6-13,24.6-14.9c0-5.2-1.7-10.1-8.2-10.1c-4.6,0-8.8,2.1-12,4.3l-2.7-4.6c3.7-2.4,9.4-5.2,15.8-5.2
			c9.7,0,13.8,6.6,13.8,16.4v24.6h-5.5l-0.6-4.8h-0.2c-3.8,3.2-8.3,5.7-13.3,5.7C1042.4,790.7,1037.4,786.5,1037.4,779.3z M1062,780
			v-11.2c-13.5,1.6-18,4.9-18,10.1c0,4.6,3.1,6.4,7.1,6.4C1054.9,785.3,1058.1,783.5,1062,780z"/>
		<path class="st0" d="M1081.5,777.3v-22.1h-6v-5.1l6.3-0.4l0.8-11.3h5.6v11.3h10.8v5.4h-10.8v22.3c0,4.9,1.5,7.7,6.2,7.7c1.4,0,3.2-0.5,4.6-1
			l1.3,5c-2.3,0.7-4.9,1.5-7.4,1.5C1084.4,790.7,1081.5,785.3,1081.5,777.3z"/>
		<path class="st0" d="M1107,737c0-2.6,1.8-4.3,4.5-4.3s4.5,1.8,4.5,4.3c0,2.7-1.8,4.5-4.5,4.5C1108.8,741.5,1107,739.7,1107,737z M1108.1,749.7
			h6.7v40h-6.7V749.7z"/>
		<path class="st0" d="M1122.5,749.7h7l7.5,22.8c1.3,3.9,2.5,8,3.8,11.8h0.3c1.3-3.8,2.5-7.9,3.7-11.8l7.6-22.8h6.6l-14.2,40h-7.8L1122.5,749.7z
			"/>
		<path class="st0" d="M1163.4,769.8c0-13.3,8.8-21.1,18.6-21.1s18.6,7.7,18.6,21.1c0,13.3-8.8,20.9-18.6,20.9S1163.4,783,1163.4,769.8z
			 M1193.6,769.8c0-9.2-4.7-15.5-11.6-15.5s-11.6,6.3-11.6,15.5s4.6,15.3,11.6,15.3S1193.6,779,1193.6,769.8z"/>
		<path class="st0" d="M202.4,894.5l1.3-5.4c0.8,0.3,2,0.7,3,0.7c4.6,0,7.4-3.7,9.1-8.6l0.9-3l-16.1-40.1h7l8.2,22.2c1.2,3.5,2.6,7.6,3.8,11.2
			h0.4c1.1-3.6,2.3-7.7,3.4-11.2l7.1-22.2h6.6L222,881.4c-2.7,7.9-6.9,13.9-14.9,13.9C205.2,895.3,203.7,895,202.4,894.5z"/>
		<path class="st0" d="M261.9,824h31.2v5.8h-24.3v18.3h20.6v5.7h-20.6V878H262v-54H261.9z"/>
		<path class="st0" d="M297.8,858.1c0-13.3,8.8-21.1,18.6-21.1s18.6,7.7,18.6,21.1c0,13.3-8.8,20.9-18.6,20.9S297.8,871.4,297.8,858.1z
			 M328,858.1c0-9.2-4.7-15.5-11.6-15.5s-11.6,6.3-11.6,15.5s4.6,15.3,11.6,15.3C323.3,873.4,328,867.3,328,858.1z"/>
		<path class="st0" d="M345.5,838.1h5.5l0.6,7.3h0.2c2.8-5.1,6.8-8.3,11.3-8.3c1.8,0,3,0.2,4.3,0.9l-1.3,5.9c-1.3-0.5-2.3-0.7-3.9-0.7
			c-3.3,0-7.4,2.4-10.1,9.2v25.7h-6.7v-40H345.5z"/>
		<path class="st0" d="M374.1,838.1h5.5l0.6,5.8h0.2c3.5-3.8,7.7-6.8,12.4-6.8c6.1,0,9.4,2.9,11,7.7c4.1-4.5,8.3-7.7,13.2-7.7
			c8.2,0,12.2,5.4,12.2,15.7v25.3h-6.7v-24.4c0-7.5-2.4-10.7-7.4-10.7c-3.1,0-6.3,2-10.1,6.1v29h-6.7v-24.4c0-7.5-2.4-10.7-7.4-10.7
			c-3,0-6.4,2-10.1,6.1v29h-6.7V838.1z"/>
		<path class="st0" d="M439.7,867.7c0-8.7,7.6-13,24.6-14.9c0-5.2-1.7-10.1-8.2-10.1c-4.6,0-8.8,2.1-12,4.3l-2.7-4.6c3.7-2.4,9.4-5.2,15.8-5.2
			c9.7,0,13.8,6.6,13.8,16.4v24.6h-5.5l-0.6-4.8h-0.2c-3.8,3.2-8.3,5.7-13.3,5.7C444.7,879,439.7,874.9,439.7,867.7z M464.3,868.4
			v-11.2c-13.5,1.6-18,4.9-18,10.1c0,4.6,3.1,6.4,7.1,6.4C457.3,873.7,460.4,871.8,464.3,868.4z"/>
		<path class="st0" d="M480.8,858.1c0-13.3,9.1-21.1,19.3-21.1c5.2,0,8.8,2.2,11.7,4.7l-3.5,4.4c-2.4-2.1-4.8-3.5-8-3.5
			c-7.3,0-12.6,6.3-12.6,15.5s5,15.3,12.4,15.3c3.7,0,6.9-1.7,9.4-4l2.9,4.5c-3.6,3.2-8.2,5.1-13,5.1
			C488.9,879,480.8,871.4,480.8,858.1z"/>
		<path class="st0" d="M520.1,825.4c0-2.6,1.8-4.3,4.5-4.3s4.5,1.8,4.5,4.3c0,2.7-1.8,4.5-4.5,4.5S520.1,828.1,520.1,825.4z M521.3,838.1h6.7v40
			h-6.7V838.1z"/>
		<path class="st0" d="M538.5,858.1c0-13.3,8.8-21.1,18.6-21.1s18.6,7.7,18.6,21.1c0,13.3-8.8,20.9-18.6,20.9S538.5,871.4,538.5,858.1z
			 M568.7,858.1c0-9.2-4.7-15.5-11.6-15.5c-6.9,0-11.6,6.3-11.6,15.5s4.6,15.3,11.6,15.3C564,873.4,568.7,867.3,568.7,858.1z
			 M552.4,827.6l11.6-13.7l4.7,4.5l-12.9,12.5L552.4,827.6z"/>
		<path class="st0" d="M586.1,838.1h5.5l0.6,5.7h0.2c3.8-3.8,8-6.8,13.4-6.8c8.4,0,12.2,5.4,12.2,15.7V878h-6.7v-24.4c0-7.5-2.3-10.7-7.6-10.7
			c-4.1,0-6.9,2.1-11,6.1v29h-6.6V838.1z"/>
		<path class="st0" d="M648.2,824h15.5c12.1,0,20.2,4.1,20.2,15.9c0,11.4-8,16.7-19.9,16.7h-8.9V878h-6.8L648.2,824L648.2,824z M663.1,851.1
			c9.5,0,14-3.5,14-11.2c0-7.8-4.8-10.3-14.3-10.3h-7.7v21.5H663.1z"/>
		<path class="st0" d="M694.1,838.1h5.5l0.6,7.3h0.2c2.8-5.1,6.8-8.3,11.3-8.3c1.8,0,3,0.2,4.3,0.9l-1.3,5.9c-1.3-0.5-2.3-0.7-3.9-0.7
			c-3.3,0-7.4,2.4-10.1,9.2v25.7h-6.6V838.1z"/>
		<path class="st0" d="M718.9,858.1c0-13.3,8.8-21.1,18.6-21.1s18.6,7.7,18.6,21.1c0,13.3-8.8,20.9-18.6,20.9S718.9,871.4,718.9,858.1z
			 M749.1,858.1c0-9.2-4.7-15.5-11.6-15.5c-6.9,0-11.6,6.3-11.6,15.5s4.6,15.3,11.6,15.3C744.4,873.4,749.1,867.3,749.1,858.1z"/>
		<path class="st0" d="M767.6,843.5h-5.4v-5.1l5.4-0.4v-6.4c0-8.1,3.7-13.2,11.6-13.2c2.4,0,4.9,0.5,6.7,1.3l-1.5,5.1c-1.5-0.7-3.1-1-4.5-1
			c-3.8,0-5.7,2.7-5.7,7.9v6.3h8.5v5.4h-8.5v34.5h-6.7v-34.4H767.6z"/>
		<path class="st0" d="M786.6,858.1c0-13,8.8-21.1,18-21.1c10.2,0,15.9,7.4,15.9,18.8c0,1.5-0.1,2.9-0.3,3.8h-27c0.4,8.5,5.7,14,13.3,14
			c3.9,0,7.1-1.2,10-3.2l2.4,4.4c-3.5,2.3-7.8,4.1-13.3,4.1C795.2,879,786.6,871.3,786.6,858.1z M814.7,854.8c0-8-3.7-12.4-9.9-12.4
			c-5.7,0-10.7,4.6-11.5,12.4H814.7z"/>
		<path class="st0" d="M826,873.5l3.3-4.4c3.5,2.8,7.1,4.7,11.9,4.7c5.3,0,7.9-2.8,7.9-6.3c0-4.1-4.7-5.9-9.1-7.6c-5.6-2.1-11.7-4.8-11.7-11.6
			c0-6.3,5.2-11.3,13.8-11.3c4.9,0,9.3,2.1,12.4,4.5l-3.2,4.3c-2.7-2.1-5.5-3.5-9.1-3.5c-5.1,0-7.4,2.7-7.4,5.7
			c0,3.8,4.1,5.2,8.6,6.9c5.8,2.2,12.2,4.6,12.2,12.2c0,6.5-5.2,11.9-14.6,11.9C835.2,879,829.8,876.7,826,873.5z"/>
		<path class="st0" d="M863.8,825.4c0-2.6,1.8-4.3,4.5-4.3s4.5,1.8,4.5,4.3c0,2.7-1.8,4.5-4.5,4.5C865.6,829.8,863.8,828.1,863.8,825.4z
			 M864.9,838.1h6.7v40h-6.7V838.1z"/>
		<path class="st0" d="M882.1,858.1c0-13.3,8.8-21.1,18.6-21.1s18.6,7.7,18.6,21.1c0,13.3-8.8,20.9-18.6,20.9S882.1,871.4,882.1,858.1z
			 M912.3,858.1c0-9.2-4.7-15.5-11.6-15.5s-11.6,6.3-11.6,15.5s4.6,15.3,11.6,15.3S912.3,867.3,912.3,858.1z"/>
		<path class="st0" d="M929.8,838.1h5.5l0.6,5.7h0.2c3.8-3.8,8-6.8,13.4-6.8c8.4,0,12.2,5.4,12.2,15.7V878H955v-24.4c0-7.5-2.3-10.7-7.6-10.7
			c-4.1,0-6.9,2.1-11,6.1v29h-6.7L929.8,838.1L929.8,838.1z"/>
		<path class="st0" d="M972.3,867.7c0-8.7,7.6-13,24.6-14.9c0-5.2-1.7-10.1-8.2-10.1c-4.6,0-8.8,2.1-12,4.3l-2.7-4.6c3.7-2.4,9.4-5.2,15.8-5.2
			c9.7,0,13.8,6.6,13.8,16.4v24.6h-5.5l-0.6-4.8h-0.2c-3.8,3.2-8.3,5.7-13.3,5.7C977.3,879,972.3,874.9,972.3,867.7z M996.9,868.4
			v-11.2c-13.5,1.6-18,4.9-18,10.1c0,4.6,3.1,6.4,7.1,6.4C989.8,873.7,993,871.8,996.9,868.4z"/>
		<path class="st0" d="M1016.3,870.1v-50.7h6.7v51.1c0,2.1,0.9,2.9,1.9,2.9c0.4,0,0.7,0,1.4-0.1l1,5.2c-1,0.4-2.1,0.6-3.9,0.6
			C1018.4,879,1016.3,875.8,1016.3,870.1z"/>
	</g>
</g>
</svg>
